<svg width="180" height="180" viewBox="0 0 180 180" fill="none" xmlns="http://www.w3.org/2000/svg">
<path d="M180 142.499V29.9987C180 24.0313 177.629 18.3083 173.41 14.0888C169.19 9.86919 163.467 7.49866 157.5 7.49866H22.5C16.5326 7.49866 10.8097 9.86919 6.5901 14.0888C2.37053 18.3083 0 24.0313 0 29.9987L0 142.499H82.5V157.499H45V172.499H135V157.499H97.5V142.499H180ZM22.5 22.4987H157.5C159.489 22.4987 161.397 23.2888 162.803 24.6954C164.21 26.1019 165 28.0095 165 29.9987V97.4987H15V29.9987C15 28.0095 15.7902 26.1019 17.1967 24.6954C18.6032 23.2888 20.5109 22.4987 22.5 22.4987V22.4987ZM15 112.499H165V127.499H15V112.499Z" fill="#EDEDED"/>
</svg>
