<svg width="180" height="180" viewBox="0 0 180 180" fill="none" xmlns="http://www.w3.org/2000/svg">
<g clip-path="url(#clip0_75_8)">
<path d="M149.619 41.5234L123.489 15.3784C118.624 10.4894 112.838 6.61339 106.465 3.97435C100.093 1.33532 93.2607 -0.0143442 86.3636 0.00340773H52.5011C42.5591 0.0153167 33.0278 3.97002 25.9977 11.0001C18.9677 18.0301 15.013 27.5614 15.0011 37.5034V142.503C15.013 152.445 18.9677 161.977 25.9977 169.007C33.0278 176.037 42.5591 179.992 52.5011 180.003H127.501C137.443 179.992 146.974 176.037 154.004 169.007C161.034 161.977 164.989 152.445 165.001 142.503V78.6409C165.02 71.7441 163.67 64.9121 161.029 58.5407C158.389 52.1693 154.51 46.3852 149.619 41.5234ZM139.014 52.1284C141.304 54.4845 143.273 57.1323 144.871 60.0034H112.501C110.512 60.0034 108.604 59.2132 107.198 57.8067C105.791 56.4002 105.001 54.4925 105.001 52.5034V20.1334C107.873 21.7303 110.523 23.6971 112.884 25.9834L139.014 52.1284ZM150.001 142.503C150.001 148.471 147.631 154.194 143.411 158.413C139.191 162.633 133.468 165.003 127.501 165.003H52.5011C46.5337 165.003 40.8108 162.633 36.5912 158.413C32.3716 154.194 30.0011 148.471 30.0011 142.503V37.5034C30.0011 31.536 32.3716 25.8131 36.5912 21.5935C40.8108 17.3739 46.5337 15.0034 52.5011 15.0034H86.3636C87.5936 15.0034 88.7861 15.2434 90.0011 15.3559V52.5034C90.0011 58.4708 92.3716 64.1937 96.5912 68.4133C100.811 72.6329 106.534 75.0034 112.501 75.0034H149.649C149.761 76.2184 150.001 77.4034 150.001 78.6409V142.503Z" fill="#EDEDED"/>
</g>
<defs>
<clipPath id="clip0_75_8">
<rect width="180" height="180" fill="white"/>
</clipPath>
</defs>
</svg>
