<svg width="30" height="30" viewBox="0 0 30 30" fill="none" xmlns="http://www.w3.org/2000/svg">
<g clip-path="url(#clip0_61_15)">
<path d="M17.6513 27.6509L30 15.3071L28.2275 13.5396L15.8838 25.8834C15.6493 26.1177 15.3315 26.2494 15 26.2494C14.6685 26.2494 14.3507 26.1177 14.1163 25.8834L1.75001 13.5234L-0.0174913 15.2909L12.3425 27.6509C13.0457 28.3539 13.9994 28.7488 14.9938 28.7488C15.9881 28.7488 16.9418 28.3539 17.645 27.6509H17.6513Z" fill="#FF0000"/>
<path d="M15.8837 16.9184L29.9762 2.82713L28.2087 1.05838L15 14.2671L1.77746 1.04463L0.00870656 2.81213L14.1162 16.9184C14.3506 17.1527 14.6685 17.2844 15 17.2844C15.3314 17.2844 15.6493 17.1527 15.8837 16.9184V16.9184Z" fill="#FF0000"/>
</g>
<defs>
<clipPath id="clip0_61_15">
<rect width="30" height="30" fill="white" transform="matrix(0 1 -1 0 30 0)"/>
</clipPath>
</defs>
</svg>
